<svg id="Capa_1" enable-background="new 0 0 512 512" height="80" viewBox="0 0 512 512" width="80"
    xmlns="http://www.w3.org/2000/svg"
    xmlns:xlink="http://www.w3.org/1999/xlink">
    <linearGradient id="SVGID_1_" gradientUnits="userSpaceOnUse" x1="94.232" x2="460.787" y1="450.607" y2="13.764">
        <stop offset="0" stop-color="#fff" stop-opacity="0"/>
        <stop offset=".9981" stop-color="#fff"/>
    </linearGradient>
    <linearGradient id="SVGID_2_" gradientUnits="userSpaceOnUse" x1="256.002" x2="256.002" y1="459.844" y2="80.236">
        <stop offset="0" stop-color="#ff4d4d" stop-opacity=".4"/>
        <stop offset=".1463" stop-color="#ff4d4d" stop-opacity=".342"/>
        <stop offset="1" stop-color="#ff4d4d" stop-opacity="0"/>
    </linearGradient>
    <g>
        <g>
            <g>
                <path d="m482.254 39.594c-26.384-52.211-95.823-48.813-134.988-12.906-19.172 17.577-53.231 5.609-76.228 7.71-33.79 3.087-51.848 37.129-85.154 43.604-326.262 63.429-125.807 559.718 164.183 403.863 68.536-36.835 35.447-127.894 48.696-190.742 18.058-85.657 131.816-155.897 83.491-251.529z" fill="url(#SVGID_1_)"/>
            </g>
            <g>
                <g>
                    <g>
                        <path d="m196.626 215.6v99.96c0 2.76-2.24 5-5 5h-151.31c-2.77 0-5-2.24-5-5v-99.96c0-2.76 2.23-5 5-5h151.31c2.76 0 5 2.24 5 5z" fill="#ffab66"/>
                        <path d="m196.626 215.6v71.13h-58.76c-5.52 0-10-4.47-10-10v-66.13h63.76c2.76 0 5 2.24 5 5z" fill="#fbb03f"/>
                        <path d="m71.072 255.521h10.025v-10.025c0-2.761 2.239-5 5-5h10.115c2.761 0 5 2.239 5 5v10.025h10.025c2.761 0 5 2.239 5 5v10.115c0 2.761-2.239 5-5 5h-10.025v10.025c0 2.761-2.239 5-5 5h-10.115c-2.761 0-5-2.239-5-5v-10.025h-10.025c-2.761 0-5-2.239-5-5v-10.115c0-2.761 2.239-5 5-5z" fill="#fff"/>
                    </g>
                    <g>
                        <path d="m274.423 136.4h41.967v161.457h-41.967z" fill="#fff" transform="matrix(.707 .707 -.707 .707 240.056 -145.289)"/>
                        <path d="m257.396 225.46v51.27c0 4.49-2.95 8.27-7.01 9.54l-26.9-26.9z" fill="#6c6cff"/>
                        <path d="m252.989 320.189-60.642-60.642c-5.21-5.21-5.21-13.658 0-18.868 5.21-5.21 13.658-5.21 18.868 0l60.642 60.642c5.21 5.21 5.21 13.658 0 18.868-5.21 5.21-13.658 5.21-18.868 0z" fill="#fff"/>
                        <path d="m254.396 283.86c-1.8 1.78-4.27 2.87-7 2.87h-27.87l-14.94-14.94-12.24-12.24c-5.21-5.21-5.21-13.66 0-18.87 2.61-2.6 6.02-3.91 9.43-3.91 3.42 0 6.84 1.31 9.44 3.91z" fill="#fff"/>
                        <g>
                            <path d="m95.648 453.048-36.161-36.161c-9.061-9.061-9.061-23.752 0-32.814l112.286-112.286c9.061-9.061 23.752-9.061 32.814 0l36.161 36.161c9.061 9.061 9.061 23.752 0 32.814l-112.286 112.286c-9.061 9.061-23.752 9.061-32.814 0z" fill="#fff"/>
                            <path d="m219.526 286.73h-62.69l14.94-14.94c9.06-9.06 23.75-9.06 32.81 0z" fill="#ff4d4d"/>
                            <g fill="#6c6cff">
                                <path d="m69.171 374.39 92.919-92.919c13.464 13.464 13.464 35.294 0 48.758l-44.161 44.161c-13.464 13.464-35.294 13.464-48.758 0z"/>
                                <path d="m138.146 443.365 92.919-92.919c-13.464-13.464-35.294-13.464-48.758 0l-44.161 44.161c-13.465 13.464-13.465 35.294 0 48.758z"/>
                            </g>
                        </g>
                        <path d="m430.601 106.111-24.176-24.176c-1.664-1.664-4.167-2.158-6.338-1.251l-51.684 21.591c-1.801.752-3.103 2.36-3.464 4.278l-7.286 38.654 29.675 29.675 38.654-7.286c1.918-.362 3.526-1.663 4.278-3.464l21.591-51.684c.907-2.17.413-4.673-1.25-6.337z" fill="#b3b3ff"/>
                    </g>
                    <g>
                        <g>
                            <g>
                                <path d="m466.687 377.739h-154.153c-5.523 0-10-4.477-10-10v-154.154c0-5.523 4.477-10 10-10h154.153c5.523 0 10 4.477 10 10v154.153c0 5.524-4.477 10.001-10 10.001z" fill="#fff"/>
                                <path d="m476.687 238.552v-24.966c0-5.523-4.477-10-10-10h-154.153c-5.523 0-10 4.477-10 10v24.966z" fill="#ffab66"/>
                            </g>
                            <g>
                                <path d="m322.881 257.331v99.624h112.967c1.249 0 1.832-1.546.895-2.371l-111.612-98.27c-.875-.77-2.25-.149-2.25 1.017z" fill="#d9d9ff"/>
                            </g>
                            <g>
                                <g>
                                    <path d="m400.137 265.973h33.203c2.761 0 5-2.239 5-5s-2.239-5-5-5h-33.203c-2.761 0-5 2.239-5 5s2.239 5 5 5z" fill="#fff"/>
                                    <circle cx="451.34" cy="260.973" fill="#fff" r="5"/>
                                </g>
                            </g>
                        </g>
                        <path d="m322.881 333.649h32.839l15.413-15.414c.85-.85 2.305-.248 2.305.955v24.123l40.119-40.119c.527-.527 1.382-.527 1.909 0l10.965 10.965 27.387-27.387c.85-.85 2.305-.248 2.305.955v67.882c0 .746-.604 1.35-1.35 1.35h-131.892z" fill="#ffab66"/>
                        <path d="m456.124 351.955h-128.243v-18.996h3.356c2.761 0 5-2.239 5-5s-2.239-5-5-5h-3.356v-13.375h3.356c2.761 0 5-2.239 5-5s-2.239-5-5-5h-3.356v-13.375h3.356c2.761 0 5-2.239 5-5s-2.239-5-5-5h-3.356v-21.876c0-2.761-2.238-5-5-5s-5 2.239-5 5v102.622c0 2.761 2.238 5 5 5h133.243c2.762 0 5-2.239 5-5s-2.238-5-5-5z" fill="#fff"/>
                    </g>
                    <g>
                        <g>
                            <g>
                                <path d="m255.685 389.715h-18.583c-2.762 0-5-2.239-5-5s2.238-5 5-5h18.583c2.762 0 5 2.239 5 5s-2.239 5-5 5z" fill="#fbb03f"/>
                            </g>
                            <g>
                                <path d="m295.685 410.097h-58.583c-2.762 0-5-2.239-5-5s2.238-5 5-5h58.583c2.762 0 5 2.239 5 5s-2.239 5-5 5z" fill="#fbb03f"/>
                            </g>
                            <g>
                                <path d="m295.685 430.479h-58.583c-2.762 0-5-2.239-5-5s2.238-5 5-5h58.583c2.762 0 5 2.239 5 5s-2.239 5-5 5z" fill="#fbb03f"/>
                            </g>
                        </g>
                    </g>
                    <g>
                        <g>
                            <path d="m257.396 99.249v153.48c0 5.53-4.48 10-10 10h-109.53c-5.52 0-10-4.47-10-10v-153.48c0-5.53 4.48-10 10-10h109.53c5.52 0 10 4.47 10 10z" fill="#fff"/>
                        </g>
                        <g>
                            <g>
                                <g>
                                    <path d="m181.922 129.74h-18.583c-2.761 0-5-2.239-5-5s2.239-5 5-5h18.583c2.761 0 5 2.239 5 5s-2.239 5-5 5z" fill="#fff"/>
                                </g>
                                <g>
                                    <g>
                                        <path d="m221.922 150.121h-58.583c-2.761 0-5-2.239-5-5s2.239-5 5-5h58.583c2.761 0 5 2.239 5 5s-2.239 5-5 5z" fill="#ffab66"/>
                                    </g>
                                    <g>
                                        <path d="m221.922 170.503h-58.583c-2.761 0-5-2.239-5-5s2.239-5 5-5h58.583c2.761 0 5 2.239 5 5s-2.239 5-5 5z" fill="#ffab66"/>
                                    </g>
                                </g>
                            </g>
                            <g>
                                <path d="m221.922 211.673h-40.583c-2.761 0-5-2.239-5-5s2.239-5 5-5h40.583c2.761 0 5 2.239 5 5s-2.239 5-5 5z" fill="#ffab66"/>
                                <g fill="#fff">
                                    <circle cx="163.339" cy="206.673" r="5"/>
                                    <circle cx="163.339" cy="227.054" r="5"/>
                                </g>
                            </g>
                            <g>
                                <path d="m221.922 232.054h-40.583c-2.761 0-5-2.239-5-5s2.239-5 5-5h40.583c2.761 0 5 2.239 5 5s-2.239 5-5 5z" fill="#ffab66"/>
                            </g>
                        </g>
                    </g>
                </g>
                <g>
                    <g>
                        <path d="m370.641 443.625c-2.762 0-5-2.239-5-5 0-3.492-2.842-6.333-6.334-6.333-2.762 0-5-2.239-5-5s2.238-5 5-5c3.492 0 6.334-2.841 6.334-6.333 0-2.761 2.238-5 5-5s5 2.239 5 5c0 3.492 2.841 6.333 6.333 6.333 2.762 0 5 2.239 5 5s-2.238 5-5 5c-3.492 0-6.333 2.841-6.333 6.333 0 2.761-2.239 5-5 5z" fill="#ffab66"/>
                    </g>
                    <g>
                        <path d="m176.339 61.907c-2.762 0-5-2.239-5-5 0-3.492-2.841-6.333-6.333-6.333-2.762 0-5-2.239-5-5s2.238-5 5-5c3.492 0 6.333-2.841 6.333-6.333 0-2.761 2.238-5 5-5s5 2.239 5 5c0 3.492 2.841 6.333 6.333 6.333 2.762 0 5 2.239 5 5s-2.238 5-5 5c-3.492 0-6.333 2.841-6.333 6.333 0 2.761-2.238 5-5 5z" fill="#fff"/>
                    </g>
                    <g>
                        <path d="m462.673 166.455c-2.762 0-5-2.239-5-5 0-3.492-2.841-6.333-6.333-6.333-2.762 0-5-2.239-5-5s2.238-5 5-5c3.492 0 6.333-2.841 6.333-6.333 0-2.761 2.238-5 5-5s5 2.239 5 5c0 3.492 2.842 6.333 6.334 6.333 2.762 0 5 2.239 5 5s-2.238 5-5 5c-3.492 0-6.334 2.841-6.334 6.333 0 2.761-2.238 5-5 5z" fill="#fff"/>
                    </g>
                    <g>
                        <path d="m91.7 181.336c-1.279 0-2.56-.488-3.535-1.464l-5.465-5.464-5.465 5.464c-1.951 1.952-5.119 1.952-7.07 0-1.953-1.953-1.953-5.119 0-7.071l9-9c1.951-1.952 5.119-1.952 7.07 0l9 9c1.953 1.953 1.953 5.119 0 7.071-.975.976-2.256 1.464-3.535 1.464z" fill="#fff"/>
                    </g>
                    <g>
                        <path d="m474.34 110.699c-1.279 0-2.56-.488-3.535-1.464l-5.465-5.464-5.465 5.464c-1.951 1.952-5.119 1.952-7.07 0-1.953-1.953-1.953-5.119 0-7.071l9-9c1.951-1.952 5.119-1.952 7.07 0l9 9c1.953 1.953 1.953 5.119 0 7.071-.976.975-2.256 1.464-3.535 1.464z" fill="#fff"/>
                    </g>
                </g>
            </g>
        </g>
        <path d="m466.687 203.585h-128.061l28.702-28.702 38.654-7.286c1.918-.362 3.526-1.663 4.278-3.464l21.592-51.684c.907-2.171.413-4.674-1.251-6.338l-24.176-24.176c-1.663-1.663-4.167-2.158-6.338-1.251l-51.684 21.591c-1.801.752-3.103 2.36-3.464 4.278l-7.286 38.654-80.257 80.257v-126.215c0-5.53-4.48-10-10-10h-109.53c-5.52 0-10 4.47-10 10v111.351h-87.55c-2.77 0-5 2.24-5 5v99.96c0 2.76 2.23 5 5 5h82.685l-63.514 63.513c-9.061 9.061-9.061 23.752 0 32.814l36.161 36.161c9.061 9.061 23.752 9.061 32.814 0l112.286-112.286c9.061-9.061 9.061-23.752 0-32.814l12.241 12.241c5.21 5.21 13.658 5.21 18.868 0s5.21-13.658 0-18.868l-15.484-15.484 46.16-46.16v128.062c0 5.523 4.477 10 10 10h154.154c5.523 0 10-4.477 10-10v-154.154c0-5.523-4.477-10-10-10z" fill="url(#SVGID_2_)"/>
    </g>
</svg>