<?xml version="1.0" encoding="UTF-8"?>
<!DOCTYPE svg PUBLIC "-//W3C//DTD SVG 1.1//EN" "http://www.w3.org/Graphics/SVG/1.1/DTD/svg11.dtd">
<!-- Creator: CorelDRAW -->
<svg xmlns="http://www.w3.org/2000/svg" xml:space="preserve" width="80px" height="60px" style="shape-rendering:geometricPrecision; text-rendering:geometricPrecision; image-rendering:optimizeQuality; fill-rule:evenodd; clip-rule:evenodd"
viewBox="0 0 1050 600"
 xmlns:xlink="http://www.w3.org/1999/xlink">
 <defs>
  <style type="text/css">
   <![CDATA[
    .fil1 {fill:#02213B}
    .fil0 {fill:#21669D}
    .fil2 {fill:#FEFEFE;fill-rule:nonzero}
    .fil3 {fill:#282829;fill-rule:nonzero}
   ]]>
  </style>
 </defs>
 <g id="Camada_x0020_1">
  <metadata id="CorelCorpID_0Corel-Layer"/>
  <g id="_264401112">
   <polygon id="_264401952" class="fil0" points="398.856,98.7827 74.8961,98.7827 74.8961,422.743 152.57,422.743 152.57,148.039 398.856,148.039 "/>
   <path id="_262798264" class="fil1" d="M478.846 159.407l-313.962 0 0 254.637c0,38.1283 31.1941,69.3224 69.3224,69.3224l185.315 0c38.1283,0 69.3224,-31.1941 69.3224,-69.3224l0 -244.639c0,-5.49921 -4.49882,-9.99803 -9.99803,-9.99803z"/>
   <path id="_264400944" class="fil2" d="M331.968 266.011c-7.86614,0 -14.3421,-2.54173 -19.4268,-7.62638 -5.08465,-5.08465 -7.62638,-11.5594 -7.62638,-19.4268 0,-8.05748 2.54173,-14.5807 7.62638,-19.5697 5.08465,-4.98898 11.5606,-7.48228 19.4268,-7.48228 7.86614,0 14.3421,2.49331 19.4256,7.48228 5.08465,4.98898 7.62756,11.5122 7.62756,19.5697 0,7.6748 -2.54291,14.1024 -7.62756,19.2827 -5.08346,5.18031 -11.5594,7.77047 -19.4256,7.77047zm-22.161 159.728c-1.34291,0 -2.39764,-0.383858 -3.16535,-1.15157 -0.767717,-0.766535 -1.15157,-1.82244 -1.15157,-3.16535l0 -141.02c0,-1.34291 0.383858,-2.39882 1.15157,-3.16654 0.767717,-0.766535 1.82244,-1.15039 3.16535,-1.15039l45.4724 0c1.34291,0 2.39764,0.383858 3.16535,1.15039 0.767717,0.767717 1.15157,1.82362 1.15157,3.16654l0 141.02c0,1.34291 -0.383858,2.39882 -1.15157,3.16535 -0.767717,0.767717 -1.82244,1.15157 -3.16535,1.15157l-45.4724 0z"/>
   <path id="_264359696" class="fil3" d="M522.563 219.005l41.7307 0c22.8791,0 39.1406,2.0622 48.8291,6.13937 9.68976,4.07717 17.5075,10.8413 23.4083,20.2902 5.89961,9.44882 8.8252,20.6728 8.8252,33.5764 0,13.6228 -3.21378,24.9425 -9.73701,34.1043 -6.52323,9.11339 -16.3571,16.0205 -29.4508,20.7213l48.9248 91.9028 -43.0252 0 -46.5272 -87.5386 -3.64606 0 0 87.5386 -39.3319 0 0 -206.734zm39.3319 80.8228l12.3756 0c12.5669,0 21.2008,-1.6311 25.95,-4.94055 4.70079,-3.26102 7.05118,-8.6811 7.05118,-16.2602 0,-4.50827 -1.15157,-8.44252 -3.50197,-11.752 -2.35039,-3.30945 -5.4685,-5.70709 -9.40157,-7.14685 -3.93307,-1.48701 -11.1283,-2.2063 -21.6331,-2.2063l-10.8402 0 0 42.3059z"/>
   <path id="_2643596961" class="fil3" d="M835.782 360.409l-123.274 0c1.7752,10.8413 6.57165,19.4752 14.2949,25.9016 7.72205,6.42756 17.5547,9.64134 29.5465,9.64134 14.3421,0 26.6693,-5.03622 36.9827,-15.0614l32.3291 15.2055c-8.05866,11.4165 -17.7,19.8579 -28.9724,25.3748 -11.224,5.46732 -24.5587,8.20157 -40.0512,8.20157 -23.9835,0 -43.5059,-7.57795 -58.5673,-22.6878 -15.1087,-15.1571 -22.6394,-34.1043 -22.6394,-56.8394 0,-23.3598 7.53071,-42.6909 22.5437,-58.135 15.0614,-15.398 33.9118,-23.1201 56.5524,-23.1201 24.0791,0 43.6488,7.72205 58.7587,23.1201 15.0614,15.4441 22.6394,35.7827 22.6394,61.0606l-0.142913 7.33819zm-38.5169 -30.2185c-2.54291,-8.53819 -7.53071,-15.4453 -14.9657,-20.8169 -7.43504,-5.32441 -16.1161,-8.01024 -25.95,-8.01024 -10.6488,0 -20.0492,3.02126 -28.1079,9.01772 -5.03622,3.74055 -9.73701,10.3606 -14.0539,19.8094l83.0776 0z"/>
   <path id="_26435969612" class="fil3" d="M960.398 294.216l-23.7437 23.7425c-9.64134,-9.54449 -18.3709,-14.3409 -26.237,-14.3409 -4.31693,0 -7.72323,0.91063 -10.1209,2.73307 -2.44606,1.82362 -3.69331,4.12559 -3.69331,6.81142 0,2.0622 0.814961,3.9815 2.35039,5.70827 1.53425,1.72677 5.37165,4.07717 11.4638,7.09843l14.0055 7.00394c14.8217,7.33819 24.9909,14.7732 30.5067,22.3524 5.51575,7.57795 8.29843,16.5 8.29843,26.7165 0,13.5744 -4.98898,24.8941 -14.9657,34.0087 -9.97677,9.06496 -23.3598,13.6217 -40.0996,13.6217 -22.3039,0 -40.0996,-8.72953 -53.4343,-26.1413l23.6469 -25.7102c4.46102,5.22874 9.73701,9.49724 15.7807,12.711 6.0437,3.21378 11.4165,4.84488 16.1173,4.84488 5.03622,0 9.11339,-1.19882 12.1831,-3.64488 3.11811,-2.44724 4.65236,-5.22874 4.65236,-8.44252 0,-5.89961 -5.56299,-11.6563 -16.6913,-17.2677l-12.9508 -6.47598c-24.7512,-12.4713 -37.0783,-28.0594 -37.0783,-46.7669 0,-12.0874 4.65236,-22.448 13.9583,-30.9862 9.30591,-8.58543 21.2492,-12.9024 35.7827,-12.9024 9.92953,0 19.2343,2.2063 28.0122,6.57165 8.77795,4.36417 16.213,10.6004 22.2567,18.7547z"/>
  </g>
 </g>
</svg>
